<svg width="17" height="17" viewBox="0 0 17 17" fill="none" xmlns="http://www.w3.org/2000/svg">
<path d="M15.8332 5.09087L10.3749 0.724202C9.30824 -0.125799 7.64157 -0.134132 6.58324 0.715868L1.1249 5.09087C0.341571 5.71587 -0.133429 6.96587 0.0332373 7.9492L1.08324 14.2325C1.3249 15.6409 2.63324 16.7492 4.05824 16.7492H12.8916C14.2999 16.7492 15.6332 15.6159 15.8749 14.2242L16.9249 7.94087C17.0749 6.96587 16.5999 5.71587 15.8332 5.09087ZM9.0999 13.4159C9.0999 13.7575 8.81657 14.0409 8.4749 14.0409C8.13324 14.0409 7.8499 13.7575 7.8499 13.4159V10.9159C7.8499 10.5742 8.13324 10.2909 8.4749 10.2909C8.81657 10.2909 9.0999 10.5742 9.0999 10.9159V13.4159Z" fill="#EE7D46"/>
</svg>
