<svg width="16" height="17" viewBox="0 0 16 17" fill="none" xmlns="http://www.w3.org/2000/svg">
<path d="M7.575 10C3.4 10 0 12.8 0 16.25C0 16.4833 0.183333 16.6667 0.416667 16.6667H14.7333C14.9667 16.6667 15.15 16.4833 15.15 16.25C15.15 12.8 11.75 10 7.575 10Z" fill="#EE7D46"/>
<path d="M7.575 0C6.59167 0 5.69167 0.341667 4.975 0.916667C4.01667 1.675 3.40833 2.85 3.40833 4.16667C3.40833 4.95 3.625 5.68333 4.01667 6.30833C4.73333 7.51667 6.05 8.33333 7.575 8.33333C8.625 8.33333 9.58333 7.95 10.3167 7.29167C10.6417 7.01667 10.925 6.68333 11.1417 6.30833C11.525 5.68333 11.7417 4.95 11.7417 4.16667C11.7417 1.86667 9.875 0 7.575 0ZM9.73333 3.71667L7.50833 5.76667C7.35833 5.90833 7.16667 5.975 6.975 5.975C6.775 5.975 6.575 5.9 6.425 5.75L5.4 4.71667C5.09167 4.40833 5.09167 3.91667 5.4 3.60833C5.70833 3.3 6.2 3.3 6.50833 3.60833L7 4.1L8.675 2.55833C8.99167 2.26667 9.48333 2.28333 9.775 2.6C10.0667 2.925 10.05 3.425 9.73333 3.71667Z" fill="#EE7D46"/>
</svg>
